<?xml version="1.0" encoding="UTF-8"?>
<svg xmlns="http://www.w3.org/2000/svg" xmlns:xlink="http://www.w3.org/1999/xlink" version="1.1" viewBox="0 0 800 800">
  <defs>
    <style>
      .cls-1 {
        fill: #0764ba;
      }

      .cls-2 {
        fill: #62727a;
      }

      .cls-3 {
        fill: url(#linear-gradient-3);
      }

      .cls-4 {
        fill: url(#linear-gradient-2);
      }

      .cls-5 {
        fill: url(#linear-gradient);
      }

      .cls-6 {
        fill: #3e4347;
      }

      .cls-7 {
        fill: #b2c1c0;
      }

      .cls-8, .cls-9 {
        fill: #fff;
      }

      .cls-10 {
        fill: #f15744;
      }

      .cls-9 {
        font-family: Poppins-ExtraBold, Poppins;
        font-size: 51px;
        font-weight: 700;
      }

      .cls-11 {
        fill: #e8e8e8;
      }
    </style>
    <linearGradient id="linear-gradient" x1="714.7" y1="711.7" x2="121.8" y2="369.4" gradientUnits="userSpaceOnUse">
      <stop offset="0" stop-color="#667eea"/>
      <stop offset=".5" stop-color="#647de9"/>
      <stop offset=".6" stop-color="#5d7be5"/>
      <stop offset=".7" stop-color="#5178df"/>
      <stop offset=".8" stop-color="#4073d7"/>
      <stop offset=".9" stop-color="#2a6dcc"/>
      <stop offset="1" stop-color="#1066be"/>
      <stop offset="1" stop-color="#0764ba"/>
    </linearGradient>
    <linearGradient id="linear-gradient-2" x1="822.8" y1="580.3" x2="25.3" y2="119.8" xlink:href="#linear-gradient"/>
    <linearGradient id="linear-gradient-3" x1="263.1" y1="71.9" x2="526.8" y2="71.9" xlink:href="#linear-gradient"/>
  </defs>
  <!-- Generator: Adobe Illustrator 28.6.0, SVG Export Plug-In . SVG Version: 1.2.0 Build 709)  -->
  <g>
    <g id="Layer_1">
      <g>
        <path class="cls-1" d="M727.5,388.8s-23.8,26.3-23.8,47.5l-11.3-53.7,35,6.2"/>
        <path class="cls-1" d="M716.2,348.7s33.8-6.2,47.5,6.2c7.5,7.5,11.3,28.7,11.3,28.7,0,12.5-10,22.5-23.8,22.5h-35c-12.5,0-23.8-10-23.8-22.5v-11.2c0-13.8,11.3-23.7,23.8-23.7"/>
        <path class="cls-1" d="M72.5,388.8s23.8,26.3,23.8,47.5l11.3-53.7-35,6.2"/>
        <path class="cls-1" d="M83.7,348.7s-33.8-6.2-47.5,6.2c-7.5,7.5-11.2,28.7-11.2,28.7,0,12.5,10,22.5,23.7,22.5h35c12.5,0,23.7-10,23.7-22.5v-11.2c0-13.8-11.3-23.7-23.8-23.7"/>
      </g>
      <path class="cls-7" d="M517.8,118.8h-247c-7.4,0-13.2,5-13.2,11.2v23.7c0,6.2,5.9,11.2,13.2,11.2h248.5c7.4,0,13.2-5,13.2-11.2v-23.7c0-6.2-5.9-11.2-14.7-11.2"/>
      <g>
        <path class="cls-6" d="M727.5,751.2c0,12.5-10,23.8-23.8,23.8h-93.8c-12.5,0-23.8-10-23.8-23.8v-93.8c0-12.5,10-23.8,23.8-23.8h93.8c12.5,0,23.8,10,23.8,23.8v93.8"/>
        <path class="cls-6" d="M212.5,751.2c0,12.5-10,23.8-23.7,23.8h-93.8c-12.5,0-23.8-10-23.8-23.8v-93.8c0-12.5,10-23.8,23.8-23.8h93.8c12.5,0,23.7,10,23.7,23.8v93.8"/>
      </g>
      <g>
        <path class="cls-5" d="M760,525c-18.8-57.5-51.2-98.8-51.2-98.8-72.5,0-90-96.3-90-96.3H181.2s-17.5,96.3-90,96.3c0,0-32.5,42.5-51.2,98.8-7.5,22.5-2.5,73.8,0,97.5,1.2,12.5,3.7,41.2,43.8,43.8,80,5,127.5,15,317.5,15s235-10,313.7-15c40-2.5,42.5-31.2,43.8-43.8,2.5-23.8,8.8-75,1.2-97.5h0Z"/>
        <path class="cls-4" d="M650,210c-20-41.3-43.8-50-73.8-55-42.5-7.5-88.7-11.2-176.3-11.2s-133.7,3.8-176.3,11.2c-30,5-53.8,15-73.7,55-23.7,47.5-55,202.5-55,226.3s26.2,33.8,58.7,33.8h492.5c31.2,0,58.8-8.8,58.8-33.8s-31.2-178.7-55-226.3h0Z"/>
      </g>
      <path class="cls-7" d="M211.2,458.8c-6.2,38.7-42.5,70-81.2,70s-63.7-31.2-57.5-70,42.5-70,81.2-70,63.8,31.2,57.5,70"/>
      <path class="cls-8" d="M188.8,458.8c-5,26.2-28.8,47.5-53.8,47.5s-42.5-21.3-38.7-47.5c3.7-26.2,28.7-47.5,53.7-47.5s42.5,21.3,38.8,47.5"/>
      <path class="cls-8" d="M598.8,193.8c-12.5-8.7-103.7-22.5-198.8-22.5s-187.5,13.8-198.7,22.5c-46.2,31.2-58.7,177.5-58.7,177.5,0,0,23.7,11.2,58.7,11.2s35-17.5,198.7-17.5,171.3,17.5,198.8,17.5,58.8-11.2,58.8-11.2c0,0-12.5-146.3-58.8-177.5"/>
      <path class="cls-7" d="M588.7,458.8c6.2,38.7,42.5,70,81.2,70s63.7-31.2,57.5-70-42.5-70-81.2-70-63.7,31.2-57.5,70"/>
      <path class="cls-8" d="M611.3,458.8c3.7,26.2,28.7,47.5,53.7,47.5s42.5-21.3,38.7-47.5c-3.7-26.2-28.7-47.5-53.7-47.5s-42.5,21.3-38.7,47.5"/>
      <path class="cls-6" d="M558.8,635H242.5c-12.5,0-2.5-23.8,7.5-28.7,55-26.2,242.5-22.5,300,0,11.3,3.7,21.3,28.7,8.8,28.7"/>
      <g>
        <circle class="cls-8" cx="681.2" cy="598.8" r="35"/>
        <circle class="cls-8" cx="118.8" cy="598.8" r="35"/>
      </g>
      <g>
        <circle class="cls-10" cx="118.7" cy="598.8" r="23.8" transform="translate(-483.6 697.5) rotate(-88.1)"/>
        <circle class="cls-10" cx="681.2" cy="598.8" r="23.8"/>
      </g>
      <path class="cls-3" d="M511.2,25h-234.1c-7.8,0-14,5-14,11.3v82.5h263.7V36.3c-1.6-6.2-7.8-11.3-15.6-11.3"/>
      <path class="cls-11" d="M513.7,496.3c-6.2-20-30-45-50-48.8-31.2-6.2-96.3-6.2-127.5,0-21.3,3.7-43.8,28.7-50,48.8l-1.3,3.7c-6.2,20,5,36.3,26.3,36.3h178.7c21.3,0,32.5-16.2,26.2-36.3l-2.5-3.7"/>
      <path class="cls-2" d="M400,460c-23.7,0-46.3,1.2-60,3.7-12.5,2.5-31.2,21.3-37.5,37.5l-1.3,3.7c-1.3,3.7-1.3,7.5,0,10s5,3.7,8.8,3.7h178.8c3.7,0,7.5-1.2,8.8-3.7,1.2-2.5,1.2-6.2,0-10l-1.2-3.7c-5-16.2-23.8-35-37.5-37.5-12.5-1.2-35-3.7-58.8-3.7"/>
      <g>
        <path class="cls-11" d="M321.3,483.8h157.5c-5-5-10-10-15-11.3h-127.5c-5,2.5-10,6.2-15,11.3"/>
        <path class="cls-11" d="M308.8,503.7l-1.3,3.7h186.2l-1.2-3.7c-1.2-2.5-2.5-5-3.7-8.8h-176.3c-2.5,3.7-3.7,6.2-3.7,8.8"/>
      </g>
      <text class="cls-9" transform="translate(274 93.3)"><tspan x="0" y="0">UberSafe</tspan></text>
    </g>
  </g>
</svg>